<svg width="52" height="49" viewBox="0 0 52 49" fill="none" xmlns="http://www.w3.org/2000/svg">
<g clip-path="url(#clip0_157_8396)">
<path d="M25.3398 4.81764C24.8594 4.61781 24.4079 4.32945 24.0146 3.95255C22.9322 2.91545 22.5494 1.46098 22.8662 0.12793L10.1074 5.42726C10.3582 5.58156 10.5958 5.76621 10.8149 5.97616C12.0795 7.18779 12.391 8.96857 11.7442 10.461C15.2104 13.5571 20.1207 17.579 23.7638 19.0588C23.7638 19.0588 25.4534 13.2207 25.3398 4.81764Z" fill="white"/>
<path d="M20.0739 22.9418C20.0739 22.9418 16.2988 17.9511 9.25544 12.7479C7.73484 13.2816 5.96344 12.9629 4.74379 11.7943C4.55372 11.6122 4.38476 11.4149 4.23692 11.21L0.300781 25.1577C1.73955 24.7757 3.34727 25.1273 4.4798 26.2125C4.63291 26.3592 4.77283 26.5135 4.89691 26.6754C9.63295 26.0329 16.4308 24.8364 20.0739 22.9418Z" fill="white"/>
<path d="M20.9418 28.127C20.9418 28.127 14.4027 27.8361 5.65134 29.9306C5.49294 30.6995 5.10223 31.4331 4.47921 32.0301C3.75851 32.7206 2.84509 33.1127 1.90527 33.2113L9.97819 43.7417C10.0759 43.6279 10.1762 43.5191 10.2871 43.4129C11.3589 42.3859 12.8531 42.0166 14.2311 42.3024C16.681 38.3589 20.1842 32.1995 20.9418 28.127Z" fill="white"/>
<path d="M33.4665 45.5253C31.8456 41.2985 28.7859 34.054 25.7156 30.71C25.7156 30.71 20.9875 35.8803 17.1279 44.4174C17.7589 45.5683 17.7774 46.9444 17.1913 48.1105L32.5742 48.6973C32.4026 47.5944 32.7009 46.4385 33.4665 45.5253Z" fill="white"/>
<path d="M49.0098 35.6395C48.5636 35.4422 48.1439 35.1665 47.7743 34.8123C46.9084 33.9827 46.4886 32.8874 46.5203 31.7997C41.9612 30.3958 35.0472 28.5467 30.7969 28.7441C30.7969 28.7441 32.0957 35.6547 36.7737 43.9793C37.8877 43.9667 39.0044 44.3688 39.8545 45.1833C39.9522 45.2769 40.0446 45.3756 40.1317 45.4768L49.0098 35.6395Z" fill="white"/>
<path d="M51.9929 27.9506L49.2948 14.1016C47.7795 15.2854 45.6121 15.3284 44.0493 14.228C40.0973 16.7803 34.7277 20.5695 32.3623 23.7112C32.3623 23.7112 38.648 26.9616 48.157 28.6715C49.2632 27.8343 50.6966 27.594 51.9929 27.9506Z" fill="white"/>
<path d="M31.2881 0.388672C31.5019 1.64584 31.1007 2.98142 30.0869 3.95275C29.6962 4.32712 29.2501 4.61296 28.7749 4.81279C28.3974 9.35832 28.1519 15.6897 29.2342 19.4005C29.2342 19.4005 35.3272 16.914 42.3151 11.3212C42.191 10.1349 42.6029 8.90806 43.5506 7.99997C43.8938 7.67113 44.2792 7.41059 44.691 7.21835L31.2881 0.388672Z" fill="white"/>
</g>
<defs>
<clipPath id="clip0_157_8396">
<rect width="51.6926" height="48.5691" fill="white" transform="translate(0.300781 0.12793)"/>
</clipPath>
</defs>
</svg>
