<svg width="52" height="49" viewBox="0 0 52 49" fill="none" xmlns="http://www.w3.org/2000/svg">
<g clip-path="url(#clip0_157_4206)">
<path d="M25.3398 4.90519C24.8594 4.70536 24.4079 4.41699 24.0146 4.04009C22.9322 3.00299 22.5494 1.54853 22.8662 0.215473L10.1074 5.5148C10.3582 5.6691 10.5958 5.85375 10.8149 6.0637C12.0795 7.27534 12.391 9.05611 11.7442 10.5485C15.2104 13.6446 20.1207 17.6666 23.7638 19.1463C23.7638 19.1463 25.4534 13.3082 25.3398 4.90519Z" fill="black"/>
<path d="M20.0739 23.029C20.0739 23.029 16.2988 18.0383 9.25544 12.8351C7.73484 13.3688 5.96344 13.0501 4.74379 11.8814C4.55372 11.6993 4.38476 11.502 4.23692 11.2971L0.300781 25.2448C1.73955 24.8629 3.34727 25.2145 4.4798 26.2997C4.63291 26.4464 4.77283 26.6007 4.89691 26.7625C9.63295 26.1201 16.4308 24.9236 20.0739 23.029Z" fill="black"/>
<path d="M20.9418 28.2147C20.9418 28.2147 14.4027 27.9238 5.65134 30.0182C5.49294 30.7872 5.10223 31.5207 4.47921 32.1177C3.75851 32.8083 2.84509 33.2003 1.90527 33.299L9.97819 43.8293C10.0759 43.7155 10.1762 43.6067 10.2871 43.5005C11.3589 42.4735 12.8531 42.1042 14.2311 42.3901C16.681 38.4465 20.1842 32.2872 20.9418 28.2147Z" fill="black"/>
<path d="M33.4665 45.6128C31.8456 41.386 28.7859 34.1415 25.7156 30.7975C25.7156 30.7975 20.9875 35.9678 17.1279 44.5049C17.7589 45.6558 17.7774 47.0319 17.1913 48.198L32.5742 48.7849C32.4026 47.682 32.7009 46.526 33.4665 45.6128Z" fill="black"/>
<path d="M49.0098 35.7273C48.5636 35.53 48.1439 35.2543 47.7743 34.9002C46.9084 34.0705 46.4886 32.9752 46.5203 31.8875C41.9612 30.4837 35.0472 28.6346 30.7969 28.8319C30.7969 28.8319 32.0957 35.7425 36.7737 44.0671C37.8877 44.0545 39.0044 44.4567 39.8545 45.2712C39.9522 45.3648 40.0446 45.4634 40.1317 45.5646L49.0098 35.7273Z" fill="black"/>
<path d="M51.9929 28.0378L49.2948 14.1887C47.7795 15.3725 45.6121 15.4155 44.0493 14.3152C40.0973 16.8675 34.7277 20.6567 32.3623 23.7983C32.3623 23.7983 38.648 27.0487 48.157 28.7587C49.2632 27.9214 50.6966 27.6811 51.9929 28.0378Z" fill="black"/>
<path d="M31.2881 0.476185C31.5019 1.73335 31.1007 3.06893 30.0869 4.04027C29.6962 4.41463 29.2501 4.70047 28.7749 4.9003C28.3974 9.44583 28.1519 15.7772 29.2342 19.488C29.2342 19.488 35.3272 17.0015 42.3151 11.4087C42.191 10.2224 42.6029 8.99558 43.5506 8.08748C43.8938 7.75865 44.2792 7.49811 44.691 7.30586L31.2881 0.476185Z" fill="black"/>
</g>
<defs>
<clipPath id="clip0_157_4206">
<rect width="51.6926" height="48.5691" fill="white" transform="translate(0.300781 0.215427)"/>
</clipPath>
</defs>
</svg>
