<svg width="473" height="444" viewBox="0 0 473 444" fill="none" xmlns="http://www.w3.org/2000/svg">
<g clip-path="url(#clip0_200_8464)">
<path d="M228.959 43.4382C224.569 41.615 220.443 38.9842 216.848 35.5457C206.957 26.084 203.459 12.8146 206.354 0.652832L89.7568 48.9998C92.0487 50.4075 94.22 52.0921 96.2224 54.0076C107.778 65.0616 110.625 81.308 104.714 94.9236C136.391 123.17 181.264 159.863 214.557 173.363C214.557 173.363 229.997 120.101 228.959 43.4382Z" fill="#C73740"/>
<path d="M180.835 208.785C180.835 208.785 146.336 163.254 81.9694 115.784C68.0733 120.653 51.8853 117.745 40.7395 107.084C39.0024 105.422 37.4584 103.622 36.1074 101.753L0.136719 229.001C13.285 225.516 27.9772 228.724 38.3269 238.624C39.7262 239.963 41.0048 241.371 42.1387 242.848C85.4194 236.986 147.542 226.07 180.835 208.785Z" fill="#C73740"/>
<path d="M188.769 256.096C188.769 256.096 129.011 253.442 49.0354 272.55C47.5879 279.565 44.0174 286.258 38.3238 291.704C31.7377 298.004 23.3903 301.581 14.8018 302.481L88.5767 398.552C89.4693 397.513 90.3861 396.521 91.3993 395.552C101.194 386.182 114.849 382.813 127.442 385.421C149.831 349.443 181.845 293.25 188.769 256.096Z" fill="#C73740"/>
<path d="M303.22 414.823C288.407 376.261 260.446 310.168 232.389 279.66C232.389 279.66 189.18 326.83 153.909 404.716C159.675 415.216 159.844 427.77 154.488 438.408L295.066 443.762C293.498 433.701 296.224 423.154 303.22 414.823Z" fill="#C73740"/>
<path d="M445.266 324.636C441.189 322.836 437.353 320.32 433.975 317.09C426.062 309.52 422.226 299.528 422.516 289.604C380.852 276.797 317.668 259.927 278.826 261.727C278.826 261.727 290.696 324.774 333.446 400.722C343.627 400.606 353.831 404.276 361.6 411.706C362.492 412.56 363.337 413.46 364.133 414.383L445.266 324.636Z" fill="#C73740"/>
<path d="M472.531 254.482L447.875 128.133C434.027 138.933 414.22 139.326 399.938 129.287C363.823 152.572 314.752 187.142 293.136 215.804C293.136 215.804 350.578 245.458 437.477 261.059C447.585 253.42 460.685 251.228 472.531 254.482Z" fill="#C73740"/>
<path d="M283.318 3.03125C285.272 14.5007 281.605 26.6855 272.341 35.5472C268.77 38.9626 264.693 41.5703 260.35 43.3934C256.901 84.8633 254.657 142.626 264.548 176.48C264.548 176.48 320.229 153.795 384.089 102.771C382.955 91.9481 386.718 80.7556 395.379 72.4708C398.516 69.4708 402.038 67.0938 405.801 65.34L283.318 3.03125Z" fill="#C73740"/>
</g>
<defs>
<clipPath id="clip0_200_8464">
<rect width="472.396" height="443.107" fill="white" transform="translate(0.136719 0.652344)"/>
</clipPath>
</defs>
</svg>
