<svg width="250" height="321" viewBox="0 0 250 321" fill="none" xmlns="http://www.w3.org/2000/svg">
<path d="M65.2834 92.4591L69.0474 107.923L69.9997 110.236C70.2718 110.644 72.1312 114.363 75.4417 117.039L76.2127 117.538C76.3487 117.538 78.0266 118.626 78.5255 122.299C78.5255 122.889 79.3418 137.129 91.0874 147.74C92.9014 149.781 109.454 167.785 124.964 167.967C140.564 167.785 157.071 149.781 158.568 148.013C170.722 137.083 171.402 122.889 171.402 122.662C171.946 118.762 173.624 117.674 173.533 117.674C173.533 117.674 173.533 117.674 173.488 117.674L174.531 117.084C177.932 114.408 179.746 110.644 180.018 110.146L181.243 107.198L184.644 92.4591C185.324 89.6474 186.866 82.2101 182.15 79.353C181.787 79.1263 181.424 79.1263 181.107 78.9902L183.102 74.4552C186.277 48.6966 175.529 31.9625 175.529 31.9625C181.424 22.303 183.102 4.84332 183.102 4.84332C173.443 4.84332 149.77 1.35139 149.77 1.35139C88.0036 -6.72088 82.6523 23.9809 82.6523 23.9809C82.6523 23.9809 76.122 23.8902 72.9021 31.4636C72.9021 31.4636 62.1542 57.2677 66.9613 74.4552L68.5939 79.0809C68.3671 79.1716 68.095 79.1716 67.8683 79.353C63.1066 82.2101 64.7392 89.6474 65.2834 92.4591Z" fill="#E9E9E9"/>
<path d="M246.9 199.522C218.058 189.726 168.4 168.865 167.81 168.639C164.772 167.414 161.008 168.095 158.831 170.045C156.201 172.176 155.067 175.577 155.883 178.888L159.103 192.266L145.997 247.049L141.417 219.929L148.128 206.46C149.58 203.603 149.353 200.157 147.63 197.617L138.514 183.74C136.882 181.201 134.115 179.659 131.168 179.659H118.923C115.885 179.659 113.028 181.246 111.531 183.695L102.37 197.617C100.647 200.293 100.466 203.649 101.872 206.46L108.674 219.929L104.048 247.139L90.897 192.266L94.0714 179.069C94.9784 175.804 93.89 172.267 91.3051 170.135C88.8109 167.913 84.8201 167.55 82.3712 168.639L81.1468 169.138C65.5464 175.577 26.8177 191.495 3.09977 199.522C0.741579 200.338 -0.573563 202.878 0.242733 205.236L37.7924 317.205C38.4272 319.064 40.1505 320.288 42.1006 320.288H207.945C209.895 320.288 211.618 319.064 212.253 317.205L249.757 205.236C250.574 202.878 249.258 200.338 246.9 199.522Z" fill="#E9E9E9"/>
</svg>
